<?xml version="1.0" encoding="UTF-8"?>
<svg width="732px" height="325px" viewBox="0 0 732 325" version="1.1" xmlns="http://www.w3.org/2000/svg" xmlns:xlink="http://www.w3.org/1999/xlink">
    <title>logo-light</title>
    <g id="logo-light" stroke="none" stroke-width="1" fill="none" fill-rule="evenodd">
        <path d="M385.522955,13.2781925 L386.249847,13.2784909 C391.161446,13.298563 397.276563,13.6761639 398.022982,14.1640132 C398.629516,14.5617799 399.460246,14.8895875 399.866604,14.8935852 C400.272961,14.8975828 401.071664,15.1654257 401.640164,15.4892357 C402.210666,15.8130457 403.309632,16.3707185 404.084314,16.7285086 C406.234205,17.7199269 411.220591,23.0268131 412.457679,25.6372815 C414.695648,30.3585114 415.023936,31.3039566 415.556405,34.5240673 C416.48504,40.1449511 416.865689,42.7733263 416.885091,44.9223644 L416.88518,45.2580692 C416.883274,45.4797054 416.877474,45.6974959 416.867998,45.9143721 L416.850113,46.2548462 C416.804942,46.9927349 416.718479,47.7378231 416.599322,48.605805 C416.321077,50.6386123 415.892701,54.0685998 415.648486,56.229332 C415.404271,58.3880654 414.853787,61.2264001 414.42541,62.5336331 C413.997033,63.8428649 413.64072,65.5178821 413.632713,66.2554494 C413.624706,66.9930166 413.258383,68.342225 412.819998,69.2516914 C412.37961,70.1611577 412.013288,71.3324705 412.005281,71.858162 C411.997274,72.3818548 411.638959,73.5911452 411.210582,74.5445858 C410.780204,75.4980264 410.289772,76.9271879 410.119622,77.7187234 C409.951475,78.5122579 409.57114,79.5356574 409.276881,79.9933888 C408.980621,80.4511203 408.614298,81.5164952 408.460163,82.3619991 C408.304025,83.2055042 407.923691,84.1089741 407.611416,84.3668228 C407.299142,84.6246715 406.926814,85.4621801 406.782687,86.2277309 C406.640562,86.9912829 406.26223,87.8327892 405.94395,88.0966344 C405.627671,88.3604796 405.367442,88.7942251 405.367442,89.0600691 C405.367442,89.3279119 404.190407,91.8624248 402.751141,94.694763 C400.485148,99.1541465 399.348148,101.222933 396.972058,105.216589 C388.080237,120.159822 369.511904,140.513879 361.761086,143.813943 C361.575006,143.89248 360.204981,144.707145 358.66406,145.654517 L358.260229,145.902474 C356.716201,146.842749 355.286308,147.591726 355.031166,147.591726 C354.762931,147.591726 354.322543,147.859569 354.050304,148.185378 C353.780066,148.511187 352.965349,148.902957 352.240712,149.056867 C351.516075,149.208778 350.343043,149.686497 349.632418,150.116245 C348.923794,150.545993 347.936926,150.899786 347.442491,150.899786 C346.948057,150.899786 345.813058,151.271567 344.920273,151.725301 C344.009472,152.191028 342.480127,152.552816 341.433206,152.552816 C340.406302,152.552816 338.768862,152.812663 337.794005,153.132476 C336.817145,153.452288 334.919476,153.794087 333.576295,153.894029 C329.947102,154.165869 329.883046,154.319779 330.155286,162.145187 C330.277393,165.715093 330.583662,169.015157 330.831881,169.480883 C331.082101,169.94661 331.484455,171.39576 331.726668,172.702993 C331.966879,174.010226 332.375238,175.45138 332.631464,175.907113 C332.887689,176.364844 333.302053,177.31029 333.554275,178.011878 C337.077374,187.830117 350.665326,195.041886 361.066475,192.611312 C362.091377,192.371453 363.955016,192.005667 365.208118,191.799788 C370.330624,190.954284 377.480913,187.354396 384.034678,182.325347 C384.609584,181.883206 386.046368,180.508813 387.616837,178.941828 L388.144279,178.413382 C390.354261,176.190255 392.666048,173.754154 393.128677,173.086768 C395.09841,170.244435 395.845067,168.563422 395.845067,166.974354 C395.845067,166.296752 396.105295,165.237373 396.423575,164.623733 C396.721963,164.048446 397.088965,162.589497 397.270575,161.286133 L397.337872,160.769569 C397.516975,159.468211 397.863217,158.039596 398.139084,157.499913 C398.431341,156.922252 398.801667,155.712961 398.959806,154.81149 C399.119947,153.910019 399.494276,152.780682 399.794541,152.302962 C400.092803,151.825243 400.473137,150.711896 400.639284,149.830413 C400.80543,148.94893 401.283851,147.667682 401.702219,146.980085 C402.122588,146.292489 402.472896,145.452981 402.480903,145.111182 C402.488439,144.789488 402.900262,143.69936 403.415972,142.625687 L403.513812,142.424758 C404.072303,141.287425 404.532708,140.124108 404.53471,139.840275 C404.536712,139.556441 404.712867,139.322578 404.925053,139.322578 C405.13724,139.322578 405.435502,138.904823 405.587636,138.393124 C405.997997,137.015932 407.983744,132.994291 408.54824,132.396642 C408.818478,132.11081 409.166784,131.473184 409.322922,130.981472 C409.492464,130.449249 411.503499,127.324827 413.613,124.208237 L414.022052,123.605822 C415.591209,121.302292 417.152666,119.095411 417.994549,118.047061 C422.114173,112.916072 430.221304,104.904772 432.611406,103.601537 C432.925307,103.431012 433.696439,102.876502 434.474921,102.26822 L434.833104,101.984859 L435.009516,101.842569 C436.755051,100.427399 440.892691,98.0168138 443.456946,96.9214565 C444.253647,96.5816559 445.400656,96.0299796 446.003186,95.6961754 C446.607718,95.3623713 447.450459,95.088532 447.87283,95.088532 C448.297204,95.088532 449.306091,94.7347395 450.114802,94.300994 C450.925516,93.8672485 452.69307,93.3855312 454.042257,93.2296227 C455.393446,93.0737141 457.417226,92.6839428 458.540213,92.3641305 C461.190545,91.6085738 467.624204,91.6125714 469.982278,92.3721258 C470.991165,92.6959358 472.866815,93.0797106 474.149944,93.2216273 C475.435074,93.3655429 476.832303,93.7453201 477.254675,94.0671313 C477.679048,94.3869436 478.325617,94.6547865 478.689937,94.6627818 C481.166115,94.7107536 488.442516,100.429398 490.280132,103.769439 C490.718518,104.566971 491.246982,105.496425 491.455166,105.838225 C493.733169,109.56204 494.716034,123.839663 492.934467,127.335611 C492.644211,127.903278 492.26788,129.204515 492.097731,130.225916 C491.927581,131.249315 491.441153,132.734444 491.014778,133.527978 C490.588403,134.321513 490.240097,135.214988 490.240097,135.514812 C490.240097,135.821757 490.03492,136.374898 489.428254,137.603004 L489.243826,137.972628 C488.950288,138.555725 488.579574,139.270296 488.116229,140.150093 C482.93367,149.990319 467.317934,166.194811 463.018152,166.194811 C462.803964,166.194811 462.19743,166.566593 461.672969,167.022326 C461.148508,167.47606 460.35581,167.847842 459.915423,167.847842 C459.473034,167.847842 458.6383,168.221622 458.059791,168.675356 C457.481282,169.131089 456.516433,169.50287 455.917907,169.50287 C455.31938,169.50287 454.112319,169.886645 453.235547,170.354371 C451.035612,171.533679 437.44766,171.42974 436.116489,170.226446 C435.678104,169.828679 435.019525,169.50287 434.653202,169.50287 C434.288882,169.50287 432.741521,168.503457 431.216179,167.282173 C428.321633,164.965533 427.114571,164.705685 426.532059,166.274764 C426.137712,167.344137 427.188636,173.020806 428.171501,175.12757 C428.607885,176.063021 428.9662,177.00247 428.9662,177.214346 C428.9662,178.047857 433.522207,183.538635 435.64007,185.255628 C450.557192,197.354529 476.22577,194.748058 492.42602,179.489011 C493.250908,178.711671 494.319323,177.579914 495.384276,176.386574 L495.782988,175.936756 C497.837178,173.603695 499.762473,171.176868 499.762473,170.786118 C499.762473,170.534265 499.930621,170.328386 500.136802,170.328386 C500.342983,170.328386 501.039596,169.444904 501.684163,168.365538 C501.764734,168.230617 501.846431,168.093885 501.928163,167.95716 L502.172374,167.548829 C502.49522,167.009271 502.801177,166.498945 503.020432,166.134284 L503.167526,165.88992 C503.210412,165.818782 503.246788,165.758567 503.275563,165.711095 C503.654078,165.086734 504.168911,164.137275 504.671447,163.162105 L504.921003,162.673764 L505.022513,162.47276 L505.221208,162.075158 C505.871974,160.763521 506.394298,159.614941 506.400311,159.410792 C506.408318,159.162937 506.774641,158.215493 507.215028,157.306027 C507.653414,156.39656 508.019736,155.371162 508.027743,155.027364 C508.03575,154.681567 508.414083,153.706139 508.870484,152.858636 C509.324884,152.009135 509.699213,150.985735 509.699213,150.583971 C509.699213,150.182207 510.043516,149.20478 510.465887,148.413244 C510.888259,147.61971 511.36668,146.246516 511.530824,145.361035 C511.68129,144.549345 512.011733,143.542824 512.297042,143.012742 L512.449544,142.74824 C512.732687,142.218157 513.059002,141.211637 513.200293,140.399946 C513.35643,139.514466 513.736765,138.397121 514.045036,137.919402 C514.353307,137.441682 514.739647,136.306348 514.905793,135.396882 C515.069937,134.487415 515.442265,133.370071 515.73252,132.916337 C516.002296,132.495661 516.340297,131.512947 516.519805,130.64893 L516.603156,130.222622 C516.784522,129.358354 517.124514,128.374079 517.397985,127.955248 C517.692244,127.499515 518.116617,126.38417 518.340814,125.474703 C518.839653,123.45802 519.825,120.549842 520.73862,118.373664 L521.016874,117.722265 C521.402361,116.794578 521.705774,115.758937 521.705774,115.346646 C521.705774,114.902906 522.052079,113.745585 522.476452,112.772156 C525.004676,106.981554 525.445063,104.355095 524.231996,102.304298 C522.960878,100.15356 523.13303,99.2281031 525.204852,97.0373885 C527.358746,94.7587255 527.014444,94.8466739 529.248409,96.0199855 C531.810662,97.3631973 551.017557,97.3492055 555.033089,95.9999972 C556.400292,95.5402669 558.572202,95.0685437 559.861336,94.9526117 C561.15047,94.8366797 562.63978,94.4688955 563.172248,94.1330926 C563.704717,93.7992884 565.057907,93.3955253 566.176891,93.237618 C567.295875,93.0797106 568.627046,92.6799452 569.133492,92.3481399 C569.940201,91.8204495 571.387474,93.9871782 571.387474,95.724159 C571.387474,95.7289562 571.367585,95.7462453 571.32966,95.7748069 L571.230312,95.8465992 C570.822658,96.1335988 569.668362,96.8854776 568.316773,97.7409757 C565.514308,99.5119366 562.439604,102.374257 561.146466,104.413061 C560.86622,104.854802 560.213646,105.868207 559.697192,106.66374 C559.180737,107.459274 558.233904,109.228236 557.593341,110.591436 C556.952778,111.956635 556.16008,113.599671 555.833793,114.243293 C555.507506,114.886916 555.233265,115.630479 555.22726,115.896323 C555.219253,116.162167 554.756846,117.309494 554.196353,118.446827 C553.63586,119.58416 553.175455,120.7075 553.173453,120.943362 C553.171451,121.179224 552.797122,122.102682 552.342722,122.994159 C551.886321,123.885636 551.513994,124.873056 551.513994,125.188871 C551.513994,125.502687 551.237751,126.254246 550.899453,126.857892 C550.559154,127.461538 550.02068,128.698812 549.700398,129.608278 C548.311176,133.549965 548.046944,134.245557 547.316301,135.854613 C546.92224,136.723246 546.590316,137.746993 546.538498,138.23289 L546.524514,138.437124 C546.470894,138.920437 546.125826,139.925225 545.716894,140.769729 C545.278509,141.679196 544.912187,142.798539 544.90418,143.25627 C544.896172,143.716001 544.543863,144.737401 544.121491,145.530936 C543.701121,146.322471 543.220699,147.695665 543.056554,148.583145 C542.894412,149.468625 542.516079,150.583971 542.217817,151.063689 C541.919554,151.541409 541.555234,152.742704 541.407103,153.732124 C541.260975,154.723542 540.884644,156.026777 540.570367,156.632422 C540.258093,157.236068 539.875756,158.659233 539.719619,159.792568 C539.565484,160.925903 539.187151,162.41303 538.882883,163.09463 C538.576614,163.77623 538.204286,165.543194 538.052152,167.022326 C537.90202,168.499459 537.525689,170.452313 537.21942,171.36178 C535.938293,175.171544 536.142473,182.853037 537.633784,186.864684 C540.61841,194.891974 550.791358,193.460813 560.235665,183.68455 C563.350405,180.46244 569.730016,171.945437 569.730016,171.011985 C569.730016,170.844084 569.920184,170.482296 570.152388,170.208456 C571.125244,169.057132 573.028918,165.950954 573.034923,165.505216 C573.038927,165.241371 573.209077,164.961535 573.411254,164.88558 C573.613432,164.809624 574.125883,164.060064 574.548255,163.218558 C574.962137,162.397706 575.386952,161.551966 575.81478,160.697455 L576.182044,159.963245 L576.900645,158.522929 L577.25788,157.805121 C579.6314,153.032001 581.820912,148.551077 582.443199,147.177969 C582.513761,147.021561 582.586513,146.861467 582.660374,146.699945 L582.996606,145.971065 C583.407813,145.08704 583.803646,144.26218 584.004572,143.871909 C584.298831,143.302243 584.665153,142.244864 584.821291,141.523287 C584.975426,140.799712 585.349756,140.00218 585.654023,139.750327 C585.956289,139.500474 586.330618,138.622989 586.484754,137.801471 C586.63889,136.979953 587.017222,135.916577 587.325493,135.438857 C587.610051,134.997885 587.957718,133.996579 588.135477,133.129821 L588.176242,132.916337 C588.324944,132.071833 588.654877,131.12909 588.935249,130.725057 L589.063171,130.558685 C589.345924,130.156252 589.681566,129.21351 589.837703,128.369005 C590.005851,127.459539 590.382182,126.342194 590.678443,125.888461 C590.972702,125.432728 591.397075,124.317382 591.621272,123.407916 C592.163749,121.215203 593.272725,118.017079 594.219558,115.920309 C594.609901,115.053532 594.94156,114.028195 594.993359,113.54206 L595.007312,113.337798 C595.060685,112.854486 595.404028,111.849698 595.812959,111.005193 C596.253346,110.095727 596.619669,109.030352 596.627676,108.636583 C596.635683,108.242814 596.93995,107.179438 597.302269,106.27197 C597.952841,104.646924 597.942833,104.576965 596.661706,101.950506 L595.358559,99.2800726 L597.170153,97.3911809 C599.149894,95.3283912 600.164787,95.0785378 601.916328,96.2258647 C603.541757,97.2872419 624.011763,97.20529 626.864272,96.1259233 C627.889173,95.7381508 630.085105,95.2524358 631.742563,95.0485554 C633.400021,94.844675 635.169577,94.4129284 635.676023,94.0891184 C636.180467,93.7653083 637.52565,93.3695406 638.664652,93.2076356 C639.801652,93.0477294 640.954666,92.7419088 641.224904,92.5280343 C642.213773,91.7424952 643.424839,92.9178056 643.424839,94.6607829 C643.424839,96.1539069 643.290721,96.337799 641.575212,97.193297 C638.280314,98.836333 632.277033,105.374497 631.604441,108.050926 C631.458313,108.634584 631.075977,109.328177 630.757697,109.592022 C630.437415,109.855867 630.171181,110.281618 630.163174,110.539466 C630.157168,110.795316 629.69276,111.934648 629.132267,113.07198 C628.571774,114.209313 628.113371,115.44259 628.111369,115.812373 C628.107365,116.182156 627.833124,116.711845 627.496828,116.989682 C627.160533,117.267519 626.768187,118.131012 626.622059,118.906557 C626.47593,119.682102 626.005517,121.003327 625.575138,121.844833 C625.146761,122.686339 624.794451,123.665765 624.794451,124.023555 C624.794451,124.379346 624.534222,125.042957 624.213941,125.498689 C623.895661,125.952423 623.411235,127.151719 623.138995,128.161127 C622.866756,129.170535 622.38233,130.369831 622.062048,130.825564 C621.743768,131.281296 621.481537,132.032855 621.481537,132.496583 C621.481537,132.96231 621.10921,134.03568 620.65481,134.883183 C620.198409,135.732685 619.826081,136.756084 619.826081,137.157848 C619.826081,137.559613 619.477775,138.537039 619.053401,139.330574 C618.629028,140.122109 618.138597,141.419348 617.964444,142.210884 C617.806123,142.932279 617.479058,143.843645 617.202827,144.347286 L617.040724,144.62381 C616.765455,145.127437 616.444015,146.038638 616.292973,146.758216 C616.126827,147.55175 615.7545,148.575149 615.466246,149.032881 C615.202378,149.449 614.875644,150.334266 614.699606,151.08948 L614.603453,151.534105 C614.427415,152.290821 614.100681,153.176086 613.836813,153.592206 C613.546558,154.049937 613.17423,155.073337 613.008084,155.866871 C612.857042,156.586449 612.527331,157.510865 612.241534,158.031912 L612.079976,158.308188 C611.792195,158.83953 611.465727,159.844371 611.322601,160.656061 C611.166464,161.54354 610.784128,162.672878 610.473855,163.168587 C610.163582,163.664296 609.789253,164.873587 609.643124,165.855011 C609.496996,166.838434 609.146687,168.015743 608.862437,168.473474 C608.578187,168.929207 608.145807,170.23644 607.899591,171.375772 C607.655376,172.515103 607.166946,174.000232 606.812634,174.677834 C606.458323,175.355437 606.168067,176.378836 606.166066,176.950501 C606.164064,177.522165 605.791736,178.683484 605.335335,179.532985 C604.880935,180.380488 604.508608,181.495834 604.508608,182.011531 C604.508608,182.529227 604.162303,183.5986 603.739932,184.390136 C603.31756,185.18367 602.839139,186.556864 602.674995,187.442345 C602.510851,188.327825 602.130516,189.44517 601.830252,189.922889 C600.404998,192.185562 602.432782,193.186974 606.78461,192.371453 C608.378011,192.071629 610.1836,191.827772 610.796138,191.827772 C613.432457,191.825773 621.275356,188.941465 626.658091,185.993195 C630.7617,183.744514 631.890693,182.385312 632.457191,179.01329 C632.627341,177.989891 633.115771,176.504762 633.542146,175.711228 C633.968521,174.917693 634.316827,174.062195 634.316827,173.812342 C634.316827,173.56049 634.923361,172.195291 635.66201,170.776123 C639.805655,162.836782 644.039379,158.13554 651.487931,153.196438 C652.791077,152.334943 654.148271,151.015718 654.622688,150.150225 C655.085095,149.310718 655.907819,147.881556 656.454299,146.97209 C656.998778,146.062624 657.733425,144.759388 658.085734,144.077788 C658.820381,142.658621 659.102629,142.198891 661.530765,138.46708 C662.501619,136.971957 663.298319,135.57078 663.298319,135.354906 C663.298319,135.137034 663.670647,134.641325 664.125047,134.251554 C664.581448,133.861782 664.953776,133.292117 664.953776,132.984297 C664.953776,132.676478 665.326103,132.086824 665.782505,131.675065 C666.236904,131.263307 666.609232,130.737615 666.609232,130.50775 C666.609232,130.275886 666.919505,129.746197 667.297837,129.328442 C667.67617,128.910687 668.188621,128.215095 668.436839,127.783349 C668.855173,127.052591 671.196198,123.619541 673.621478,120.130336 L674.107113,119.43253 L674.543404,118.807112 C676.573792,115.899893 678.499317,113.189552 679.230333,112.244466 C679.2713,112.191706 679.343229,112.0973 679.442895,111.965568 L679.575602,111.789849 C680.449248,110.631358 682.693892,107.6275 685.105501,104.391074 C693.135231,93.6100661 695.661342,90.5433238 698.22684,88.7198833 L698.426926,88.5802 C698.493713,88.5344021 698.560623,88.4893296 698.627754,88.4448691 L698.829907,88.3132102 L698.931663,88.2485452 C699.788416,87.7088619 700.609138,87.0732348 700.755267,86.8373732 C700.901395,86.6015116 701.357797,86.4076254 701.770159,86.4076254 C702.18052,86.4076254 702.991234,86.0358435 703.569742,85.5801109 C704.150253,85.1263771 705.111098,84.7545953 705.709625,84.7545953 C706.306149,84.7545953 707.481183,84.4667641 708.319921,84.1189682 C711.016292,82.9936285 714.133034,82.9076789 716.897466,83.8831066 C718.256661,84.3608263 719.862073,84.7545953 720.464603,84.7545953 C721.069135,84.7545953 722.035985,85.1263771 722.614494,85.5801109 C723.193003,86.0358435 723.869598,86.4076254 724.117817,86.4076254 C725.945424,86.4076254 730.367314,92.3281516 730.367314,94.7727173 C730.367314,97.6770132 729.302377,98.396591 724.99659,98.396591 L721.423447,98.396591 L719.645883,100.15356 C716.000677,103.757446 715.274038,105.934168 715.264029,113.27786 C715.258023,118.724664 715.366119,119.840009 715.980659,120.709499 C716.379009,121.27117 716.705296,122.096685 716.705296,122.542424 C716.705296,122.988162 717.077624,124.155477 717.534025,125.136902 C717.988425,126.118326 718.755099,127.805336 719.235522,128.884703 C719.715945,129.964069 720.580705,131.87095 721.157212,133.122216 C722.236161,135.460844 723.253056,137.727514 724.682313,140.977607 C725.132709,142.001007 725.851341,143.526112 726.277716,144.365619 C726.706093,145.207126 727.056401,146.236522 727.056401,146.656275 C727.056401,147.07403 727.402706,148.09743 727.827079,148.926943 C728.251453,149.758455 728.721866,151.211603 728.874,152.159047 C729.026134,153.104492 729.400463,154.371748 729.706733,154.973395 C730.013002,155.575042 730.393337,157.36799 730.553477,158.961056 C730.711616,160.552122 731.107965,163.028669 731.43225,164.463827 C732.188916,167.79987 732.188916,172.659019 731.434252,175.643268 C731.107965,176.926515 730.71562,179.279134 730.561484,180.870201 C730.407349,182.463266 730.035021,184.156273 729.734757,184.633992 C729.432491,185.113711 729.052157,186.229057 728.888012,187.114537 C728.72587,188.000018 728.245447,189.373212 727.823076,190.166746 C727.400704,190.958282 727.056401,191.81378 727.056401,192.063633 C727.056401,192.402646 725.961907,194.720594 724.679047,197.131908 L724.411238,197.631514 L724.139836,198.130074 C723.921644,198.52784 723.603364,199.111498 723.433214,199.427313 C723.247244,199.769821 722.366453,201.100587 721.432113,202.474774 L721.080478,202.990284 C720.318591,204.103637 719.574272,205.167687 719.191483,205.675647 C715.852546,210.107047 706.009889,218.584073 701.802188,220.652859 C701.231686,220.932695 700.487031,221.344453 700.14473,221.568322 C698.965693,222.33787 694.888106,224.072852 694.25555,224.072852 C693.907243,224.072852 693.398796,224.342694 693.124555,224.6725 C692.850314,225.002307 691.75535,225.388081 690.692415,225.529997 C689.62948,225.671914 687.885947,226.145636 686.819008,226.583379 C685.742061,227.02512 683.902443,227.378913 682.679367,227.380911 C681.470304,227.380911 678.896039,227.658748 676.960337,227.998549 C672.474391,228.788086 668.126566,228.788086 665.093899,227.998549 C663.782746,227.658748 661.674892,227.378913 660.409779,227.378913 C658.900451,227.378913 657.579289,227.095079 656.566398,226.553397 C655.71565,226.097664 654.600669,225.723884 654.088218,225.719886 C653.573766,225.715888 652.688987,225.444048 652.120487,225.11624 C650.773302,224.338696 650.461028,224.182788 649.221938,223.665092 C648.651436,223.427231 647.704603,222.909535 647.114084,222.515766 C646.523564,222.121997 645.300489,221.306475 644.393691,220.70283 C642.612124,219.519524 639.457349,216.471312 638.456468,214.968194 C638.116169,214.454496 637.417555,213.523042 636.905104,212.895411 C636.392653,212.269778 635.972283,211.624156 635.972283,211.462251 C635.972283,210.842615 633.327957,207.122797 632.901582,207.142786 C632.655366,207.15278 631.61445,208.194169 630.59155,209.45343 C626.101601,214.972192 618.67707,221.654271 616.40307,222.223937 C615.798538,222.375848 615.089915,222.759623 614.823681,223.079435 C614.559449,223.397249 614.133074,223.661094 613.876848,223.663093 C613.618621,223.665092 612.477617,224.124822 611.338616,224.682495 C610.199614,225.242166 608.560172,225.705894 607.695411,225.711891 C606.83065,225.719886 605.619585,225.98573 605.005044,226.301545 C604.390504,226.617359 603.049324,226.943168 602.024423,227.02512 L600.160783,227.173033 L599.954602,214.274601 C599.760431,202.271644 599.478183,199.447301 598.577391,200.534663 C597.964852,201.274229 595.812959,206.329263 595.812959,207.026854 C595.812959,207.506572 595.632801,208.012276 595.410605,208.150195 C595.18841,208.286115 594.742017,209.273536 594.417732,210.344907 C594.093447,211.41428 593.530952,212.847439 593.166631,213.531038 C592.804313,214.212638 592.504049,215.142092 592.502047,215.597825 C592.498377,216.013748 592.185213,216.831087 591.784582,217.489428 L591.562053,217.839758 C591.161423,218.497832 590.848259,219.313645 590.844589,219.7314 C590.842587,220.185133 590.47026,221.116587 590.017862,221.798187 C589.565464,222.479787 589.193136,223.41124 589.189133,223.864974 C589.187131,224.320707 588.812802,225.250162 588.360404,225.931762 C587.908006,226.615361 587.531675,227.45087 587.523668,227.79267 C587.513659,228.134469 587.04925,229.34376 586.488757,230.479094 C585.928264,231.616426 585.469861,232.849703 585.467859,233.219486 C585.463856,233.589269 585.183609,234.124954 584.841308,234.406789 C584.501009,234.690622 584.220763,235.190329 584.220763,235.516138 C584.220763,235.843946 583.746345,237.171167 583.163833,238.464408 C582.583322,239.757649 581.858685,241.372702 581.554417,242.056301 C581.252151,242.737901 580.531517,244.318973 579.957012,245.570239 C579.382507,246.819506 578.803998,248.122741 578.671882,248.462542 C578.537764,248.804341 578.259519,249.362014 578.049334,249.703814 C577.991505,249.798203 577.897688,249.974026 577.779167,250.208019 L577.625805,250.515244 C577.380141,251.013498 577.069059,251.670076 576.758366,252.349307 L576.552017,252.803995 C575.937477,254.169194 575.276895,255.564375 575.084726,255.904176 C574.890556,256.245975 573.585408,258.756502 572.184175,261.484901 C572.083944,261.679787 571.982794,261.875947 571.881173,262.072538 L571.422218,262.957243 C570.640043,264.459743 569.869766,265.913005 569.313561,266.936254 L569.115414,267.299071 C568.928091,267.640245 568.774426,267.914254 568.66508,268.101019 C568.175149,268.934697 567.520378,270.09757 567.138658,270.810599 L566.944321,271.176505 C566.560256,271.891073 565.890806,273.053947 565.386196,273.887624 C564.83371,274.797091 564.069037,276.100326 563.686701,276.781926 C563.304364,277.463526 562.85597,278.115144 562.691826,278.229077 C562.527681,278.34301 562.08329,278.992629 561.702956,279.676228 C559.947412,282.822382 556.566438,287.64955 553.013312,292.076952 C549.518238,296.432396 543.076572,302.942577 540.538339,304.687553 C539.70961,305.25522 538.720741,306.006779 538.338404,306.358572 C537.956068,306.710366 537.179385,307.220067 536.608883,307.493906 C536.040383,307.765747 535.295728,308.143525 534.953427,308.333414 C532.695441,309.590676 530.779756,310.474158 530.317349,310.468161 C530.021088,310.464163 528.543789,310.863929 527.036463,311.353642 C523.743567,312.423014 522.5305,312.20914 521.571656,310.38421 C521.179311,309.638648 520.444665,308.345407 519.936218,307.509897 C519.608518,306.970566 519.006756,305.9743 518.376056,304.926688 L518.030641,304.352609 C517.800415,303.969746 517.572256,303.589844 517.35795,303.232407 C516.447149,301.713298 515.288129,299.792425 514.785687,298.960913 C514.281243,298.1314 513.568617,296.894125 513.204296,296.212525 C512.837974,295.528926 512.093319,294.22769 511.54884,293.318224 C510.643599,291.808443 509.800407,290.386 509.09373,289.178168 L508.722255,288.5414 C508.424722,288.029771 508.158191,287.567265 507.929657,287.165833 C507.525301,286.45625 506.83069,285.318917 506.388301,284.637317 C505.94391,283.953718 505.197253,282.744428 504.726839,281.948894 C504.256426,281.153361 503.41969,279.75818 502.867204,278.848713 C502.312716,277.939247 501.562056,276.636012 501.197735,275.954412 C500.831413,275.272811 500.086758,273.969576 499.538275,273.06011 C498.991795,272.150643 498.095006,270.533592 497.546524,269.468217 L496.547645,267.527356 L498.879696,267.295492 C512.577745,265.934291 524.792489,259.739925 535.836203,248.554488 C539.245202,245.100515 540.796566,243.305568 544.667972,238.334484 C545.107938,237.770184 545.705006,236.964695 546.316079,236.120831 L546.62212,235.696639 L546.892903,235.318765 C547.969719,233.811339 548.94842,232.384418 549.024994,232.177532 L549.029808,232.158108 C549.029808,231.960224 550.817381,229.161866 551.421913,228.412306 C551.606075,228.186439 552.382758,226.883203 553.149432,225.520003 C553.914105,224.154804 554.768857,222.759623 555.049103,222.417823 C555.327348,222.078023 555.695672,221.342454 555.865821,220.784782 C556.037973,220.227109 556.442329,219.505532 556.764612,219.183721 C557.086895,218.86191 557.455219,218.074372 557.583332,217.434747 C557.711445,216.793124 558.057749,216.177485 558.352008,216.06555 C558.646267,215.951617 559.010588,215.301998 559.16072,214.620398 C559.310852,213.938798 559.689184,213.16925 560.001459,212.909402 C560.313734,212.651554 560.698072,211.848025 560.856211,211.12445 C561.01435,210.400874 561.492771,209.365482 561.919146,208.823799 C562.343519,208.282117 562.691826,207.6305 562.691826,207.376649 C562.689824,206.932909 563.596621,204.896104 565.230058,201.665999 C565.656433,200.824493 566.00474,199.893039 566.00474,199.593215 C566.00474,199.293391 566.377067,198.353942 566.833469,197.50644 C567.287868,196.656938 567.660196,195.625543 567.660196,195.213785 C567.660196,194.802027 567.934437,194.104436 568.268731,193.662695 C569.079444,192.591324 569.109471,189.758985 568.308766,189.758985 C567.982479,189.758985 567.584129,190.178739 567.423988,190.68844 C567.263847,191.20014 566.693345,192.145585 566.154872,192.787209 C565.616398,193.430831 565.176011,194.192384 565.176011,194.480215 C565.176011,194.770045 564.803683,195.34171 564.349284,195.753468 C563.892882,196.165227 563.520555,196.660936 563.520555,196.852823 C563.520555,197.152466 561.710921,199.88091 559.818815,202.498249 L559.484409,202.958462 C559.038331,203.569164 558.593311,204.165442 558.17185,204.714211 C557.357133,205.777587 556.224137,207.264714 555.653635,208.018272 C554.930427,208.976853 553.136196,210.882265 551.20724,212.814059 L550.653252,213.365923 C548.243763,215.753552 545.764446,218.047245 544.992257,218.500122 C544.253607,218.933868 543.647074,219.425579 543.647074,219.593481 C543.647074,219.761382 542.43801,220.572906 540.960711,221.398421 C539.48141,222.223937 538.166253,223.069441 538.03814,223.279318 C537.908026,223.487196 537.487656,223.661094 537.103318,223.663093 C536.716978,223.665092 535.469881,224.124822 534.332881,224.682495 C533.193879,225.242166 531.610486,225.705894 530.813786,225.715888 C530.017085,225.723884 528.80602,226.037699 528.121417,226.41148 C526.393898,227.358924 519.918202,227.412893 518.186679,226.493432 C517.502077,226.131644 516.246973,225.709892 515.398226,225.555982 C512.32152,225.000308 506.686563,220.476962 504.03423,216.431336 C503.435704,215.517872 502.600969,214.266606 502.1806,213.650967 C501.797096,213.084799 501.475827,212.412819 501.423404,212.078432 L501.409346,211.912766 C501.363409,211.571673 501.082968,210.847779 500.745337,210.222979 C499.264034,207.470593 497.784733,199.247418 497.720677,193.426833 C497.67864,189.3932 496.958006,189.053399 494.942233,192.115603 C493.541,194.244354 489.227206,200.126902 487.872014,201.759944 C481.958813,208.883764 475.401044,215.056143 470.160435,218.432162 C464.625566,221.996071 460.736145,224.072852 459.587134,224.072852 C459.196791,224.072852 458.652312,224.342694 458.378071,224.6725 C458.10383,225.002307 457.008866,225.388081 455.945931,225.529997 C454.882997,225.671914 453.141465,226.145636 452.074526,226.583379 C449.436206,227.664745 430.655686,227.756691 427.93129,226.70131 C427.020489,226.347518 425.232916,225.915771 423.959796,225.737875 C422.686677,225.561979 421.197367,225.13423 420.648884,224.786434 C420.0984,224.438638 418.997431,224.020883 418.200731,223.860977 C417.40403,223.699072 416.473211,223.331287 416.13091,223.041457 C415.788609,222.753626 415.067975,222.381844 414.529501,222.217941 C413.991028,222.052038 412.779963,221.374436 411.839135,220.708826 C411.637529,220.565767 411.422319,220.413805 411.203,220.25949 L410.761693,219.949661 C410.099952,219.486033 409.458184,219.040519 409.092719,218.789952 C406.760668,217.198885 400.813437,210.354901 400.813437,209.263541 C400.813437,209.055663 400.46513,208.444022 400.038755,207.90234 C399.61238,207.358659 399.135961,206.323267 398.977822,205.599691 C398.819683,204.878115 398.44135,204.080582 398.139084,203.830729 C397.836818,203.580876 397.462489,202.497511 397.306352,201.424141 C397.150215,200.35277 396.771882,199.085513 396.467614,198.611791 C396.163346,198.13607 395.787015,196.183216 395.63288,194.270338 C395.086399,187.462333 393.873332,186.133113 391.469218,189.709015 C388.612905,193.958721 384.331266,199.164661 379.933161,203.986439 L379.237947,204.744385 C372.279939,212.288007 365.203314,218.698006 363.160317,218.698006 C362.98216,218.698006 362.347602,219.079782 361.751077,219.549506 C361.1161,220.047819 359.317958,221.061134 357.502716,222.002579 L356.958776,222.282269 L356.688571,222.419397 L356.155985,222.686017 C354.579038,223.467963 353.220318,224.072852 352.915305,224.072852 C352.615041,224.072852 351.674214,224.444634 350.825467,224.898368 C349.974719,225.354101 348.71361,225.725882 348.021,225.725882 C347.328391,225.725882 346.299486,226.051691 345.736991,226.449458 C344.363783,227.420888 326.464039,227.554809 325.315028,226.601369 C324.934693,226.287553 323.755656,225.867799 322.694723,225.669915 C321.631788,225.472031 320.470767,225.054276 320.11045,224.740461 C319.752135,224.426645 318.993468,224.032876 318.422966,223.866973 C317.854466,223.70107 317.015728,223.249335 316.561328,222.867559 C316.104927,222.483785 314.941904,221.644277 313.975053,221.000655 C311.090516,219.077783 307.961764,215.371957 304.877051,210.222979 C304.515399,209.619333 304.059887,208.780492 303.612753,207.914555 L303.370307,207.44079 L303.310388,207.322388 L303.01782,206.736482 C302.37121,205.426597 301.855605,204.277921 301.848387,204.058595 C301.84038,203.810741 301.474057,202.863297 301.035672,201.95383 C300.595284,201.044364 300.22696,199.837072 300.218953,199.267407 C300.208945,198.69974 299.904677,197.67634 299.540357,196.99474 C299.178038,196.311141 298.709626,194.418252 298.501443,192.78521 C298.291258,191.154167 297.844865,189.037409 297.508569,188.083968 C297.170272,187.128529 296.894029,185.639403 296.894029,184.77391 C296.894029,182.988958 296.277486,181.078079 295.702981,181.078079 C295.268599,181.078079 293.038638,184.877849 292.550208,186.452925 C292.390067,186.968986 292.150518,187.476787 291.990978,187.65045 L291.922672,187.713508 C291.719926,187.93044 290.918773,189.364384 290.090044,191.000257 C289.225283,192.705257 288.078274,194.844002 287.539801,195.753468 C287.001327,196.662935 286.326734,197.872225 286.03848,198.439892 C285.439954,199.629194 283.932628,201.995806 283.02583,203.175114 C282.683529,203.620852 282.405284,204.130553 282.405284,204.312446 C282.405284,204.49434 282.078997,204.996045 281.680647,205.427792 C281.282297,205.859539 280.489599,206.900928 279.921099,207.740435 C279.350598,208.581941 278.559902,209.571361 278.161552,209.941144 C277.763201,210.310927 277.436914,210.792644 277.436914,211.012515 C277.436914,212.519774 265.263309,222.708335 262.156654,223.839542 L262.02736,223.882964 C261.506902,224.040871 260.800281,224.416651 260.455978,224.716475 C260.109673,225.018298 259.086773,225.448045 258.177974,225.673913 C257.271176,225.897782 255.783868,226.365507 254.873067,226.713303 C252.210725,227.726708 238.390569,227.648754 236.442856,226.611363 C235.648157,226.187611 234.561201,225.703895 234.024729,225.535994 C232.365269,225.0143 230.141313,223.301305 227.392895,220.424993 C224.011921,216.887068 224.005916,216.879073 222.628705,213.942796 C222.10283,212.820161 221.491428,211.549764 221.127666,210.818181 L220.987901,210.539636 L220.931212,210.428858 C220.636953,209.861191 220.260622,208.559954 220.096477,207.536555 C219.930331,206.513155 219.525976,205.024029 219.197687,204.228496 C218.34894,202.173701 218.360951,188.187907 219.215703,185.771325 C219.545993,184.835874 219.944344,182.978964 220.102483,181.643747 C220.260622,180.310529 220.64496,178.811409 220.957234,178.3157 C221.269509,177.81999 221.651845,176.6107 221.803979,175.629276 C221.958115,174.645853 222.428529,173.194704 222.848898,172.403169 C223.269268,171.609634 223.613571,170.540262 223.613571,170.024564 C223.613571,169.508867 223.9879,168.391523 224.4423,167.54402 C224.898701,166.694518 225.271029,165.623147 225.271029,165.161418 C225.271029,164.699689 225.615332,163.67429 226.037703,162.880756 C226.460075,162.08922 226.940497,160.706032 227.106644,159.808558 C227.27279,158.911085 227.673142,157.799737 227.995425,157.340007 C228.317709,156.878278 228.581941,156.122721 228.581941,155.658993 C228.581941,155.193266 228.928246,154.165869 229.350617,153.372335 C229.770987,152.580799 230.25141,151.207605 230.415554,150.322124 C230.579698,149.436644 230.956029,148.3193 231.254292,147.84158 C231.550552,147.36386 231.910869,146.320472 232.052994,145.524939 C232.195119,144.729406 232.577456,143.520115 232.903743,142.836517 C233.488257,141.615233 234.314984,139.246623 235.427963,135.602761 C236.432847,132.31469 237.381681,129.652252 238.166372,127.909275 C238.588743,126.975823 238.933046,125.812505 238.933046,125.324791 C238.933046,124.837077 239.305374,123.743719 239.761775,122.894217 C240.216175,122.046715 240.594508,120.977342 240.602515,120.519611 C240.60995,120.094574 240.92634,119.099067 241.3241,118.23085 L241.417231,118.03307 C241.857619,117.123603 242.223941,116.00426 242.231948,115.546529 C242.237953,115.088797 242.590263,114.065398 243.012635,113.271863 C243.435006,112.480328 243.915429,111.097139 244.081575,110.199666 C244.247721,109.302192 244.648073,108.190844 244.970357,107.731114 C245.883159,106.429878 245.735029,102.456209 244.728143,101.17696 C242.642309,98.5285136 246.023283,94.5988193 249.116003,96.0759526 C250.353091,96.6676055 256.17221,97.3432091 259.841437,97.321222 C265.766649,97.2872419 274.818611,96.4257474 276.069712,95.7761285 C276.798353,95.3983502 278.195582,95.0805367 279.174443,95.0705425 C280.155305,95.0605484 281.700665,94.7667208 282.611466,94.416926 C283.522267,94.0691301 285.199742,93.607401 286.336743,93.3935265 C287.475744,93.179652 288.919014,92.7179229 289.545565,92.370127 C290.172116,92.0203322 290.692574,91.8844119 290.702583,92.068304 C290.712592,92.2521961 290.876736,93.213632 291.068905,94.2030515 L291.417211,96.0059937 L289.513537,97.0973533 C286.006452,99.1081735 282.022948,103.441631 279.692899,107.783084 C278.86417,109.328177 278.017425,110.769331 277.811244,110.985205 C277.605062,111.201078 277.430909,111.664806 277.422902,112.018598 C277.416897,112.370392 276.952488,113.589677 276.391995,114.725011 C275.831502,115.862343 275.371097,117.117607 275.369095,117.515373 C275.367094,117.91314 275.186935,118.238949 274.968743,118.238949 C274.74855,118.238949 274.380226,118.936539 274.150023,119.790039 C273.919821,120.643538 273.353322,122.076697 272.892917,122.978168 C272.461338,123.819541 272.10474,124.725339 272.059111,125.081265 L272.049301,125.215999 C272.004162,125.567067 271.651425,126.434807 271.225451,127.227675 C270.771051,128.075178 270.398723,129.004632 270.398723,129.294462 C270.398723,129.582293 270.026396,130.511748 269.569994,131.361249 C269.113593,132.208752 268.741266,133.232152 268.741266,133.633916 C268.741266,134.03568 268.368938,135.05908 267.914538,135.908581 C267.458137,136.756084 267.085809,137.779484 267.085809,138.181248 C267.085809,138.585011 266.713482,139.606412 266.25708,140.455913 C265.802681,141.303416 265.424348,142.372789 265.416341,142.83052 C265.408906,143.257412 265.092515,144.251329 264.694756,145.119309 L264.601624,145.317061 C264.161237,146.226527 263.794915,147.343872 263.784906,147.797606 C263.776899,148.253338 263.476635,149.182793 263.11832,149.866392 C262.762006,150.547992 262.279582,152.129064 262.047378,153.38033 C261.817175,154.629597 261.450853,155.866871 261.234663,156.128718 C261.018473,156.390564 260.656154,157.785745 260.429955,159.228899 C260.201754,160.672052 259.751358,162.598921 259.429074,163.508388 C256.992932,170.374359 257.363257,184.278201 260.089656,188.311835 C266.289109,197.482454 278.449805,192.747232 288.917012,177.084422 C291.39319,173.378596 293.044643,170.78212 293.477023,169.916628 C293.759271,169.346962 294.165629,168.603398 294.377816,168.261599 C296.11134,165.489225 296.467654,163.814208 296.841983,156.678395 C297.050166,152.702728 297.428499,148.918948 297.686726,148.26733 C297.942951,147.615712 298.267237,145.383022 298.40736,143.306241 C298.545481,141.229459 298.915807,138.900826 299.228082,138.131277 C299.540357,137.363728 299.970735,135.222984 300.182922,133.378066 C300.395108,131.53115 300.859517,129.330441 301.21583,128.484937 C301.572144,127.639433 301.862399,126.38417 301.862399,125.696573 C301.862399,125.006978 302.222716,123.373936 302.661102,122.064704 C303.099487,120.757471 303.589919,118.852589 303.748058,117.835186 C303.908198,116.817783 304.274521,115.608492 304.560772,115.148762 C304.849026,114.689032 305.215348,113.397789 305.373487,112.280445 C305.531626,111.161102 305.909959,109.859865 306.216229,109.386143 C306.497091,108.948861 306.846179,107.951245 307.028902,107.085033 L307.07098,106.871618 C307.235125,105.962152 307.607452,104.844808 307.897708,104.391074 C308.187963,103.935341 308.554285,102.86397 308.710423,102.008472 C308.86656,101.152974 309.346982,99.7657877 309.775359,98.9242814 C310.205738,98.0827751 310.558048,97.0653721 310.558048,96.6656066 C310.558048,96.2638424 310.928373,95.3263924 311.384775,94.5828287 C311.839175,93.8372661 312.211502,92.8858244 312.211502,92.4660707 C312.213504,92.0463169 312.48174,91.2088083 312.810029,90.6051625 C313.140319,90.0015167 313.900988,88.2985159 314.501516,86.8213826 C315.664539,83.9650585 316.441223,82.2140859 318.174747,78.5462379 C318.767269,77.2929733 319.251695,76.0377098 319.251695,75.7558751 C319.251695,75.4760393 319.423846,75.2461742 319.634031,75.2461742 C319.844216,75.2461742 320.240565,74.5485835 320.514806,73.6950843 C320.791049,72.841585 321.17939,71.9381151 321.377565,71.6862629 C321.577741,71.4344107 322.426487,69.9472832 323.265225,68.3802027 C323.670582,67.6229327 324.103789,66.826655 324.547397,66.0219923 L324.993824,65.2156688 C326.489163,62.5261681 328.035421,59.8569179 328.986257,58.3420924 C329.644614,57.2938186 330.542621,55.8925351 331.449395,54.4921444 L331.789395,53.967731 C333.317187,51.6142799 334.78776,49.3893453 335.091628,48.9935775 C335.265781,48.7657112 335.968399,47.8362566 336.650999,46.9267902 C339.701683,42.8731686 341.337121,40.8963285 345.49678,36.2410599 C346.387163,35.2445246 347.211953,34.3143056 347.720318,33.7349243 L347.895633,33.5346575 C348.081719,33.3214961 348.201239,33.1822945 348.233187,33.1408788 C348.347287,32.9929656 350.022761,31.4818523 351.958464,29.784848 L352.16561,29.6029704 L352.577192,29.2412302 C354.281247,27.7425309 355.821504,26.3753484 356.152152,26.0630317 C357.469311,24.8237588 362.215486,21.4137596 363.702794,20.6382146 C363.961021,20.5022944 364.545535,20.1764855 364.999935,19.9106415 C365.186645,19.8027048 365.593118,19.5917377 366.125203,19.3245417 L366.497502,19.1385945 C367.210379,18.7843024 368.079644,18.3615504 368.933395,17.9557885 C370.640897,17.1462635 372.52055,16.2248041 373.11107,15.9069906 C373.701589,15.5911759 375.004735,15.2093999 376.009619,15.0614867 C377.012501,14.9115746 378.223567,14.5477881 378.699986,14.2519616 C379.176405,13.9561352 380.107223,13.6263287 380.769806,13.5183921 C381.741101,13.3588585 383.493658,13.2851196 385.522955,13.2781925 Z M169.738182,0.605968233 C170.961258,0.929778242 173.94188,1.32554603 176.362008,1.48145455 C178.784139,1.6393619 181.282336,2.02913321 181.914893,2.34894557 C182.547449,2.67075675 184.317006,3.04653626 185.846351,3.18445534 C187.377698,3.32437325 189.279371,3.78210468 190.072068,4.2018584 C190.866767,4.62161211 192.175918,4.96541039 192.982628,4.96541039 C193.789337,4.96541039 194.890306,5.27322979 195.426778,5.65100813 C195.965251,6.02678765 197.250382,6.49251439 198.28329,6.6844018 C199.314197,6.87828804 200.467211,7.31403237 200.845544,7.653833 C201.221875,7.99363363 201.950516,8.27346944 202.46697,8.27346944 C202.981423,8.27346944 203.878212,8.6452513 204.456721,9.10098391 C205.035229,9.55471768 205.83193,9.92649955 206.226277,9.92649955 C206.587762,9.92649955 207.285653,10.2388996 207.845057,10.6419964 L208.141964,10.8655724 C208.694921,11.2671296 209.342351,11.5795297 209.643283,11.5795297 C209.96957,11.5795297 210.574101,11.9533103 210.986464,12.4070441 C211.398827,12.8627767 211.939302,13.2365574 212.189522,13.2405551 C212.439742,13.2445527 213.574741,13.9001681 214.713743,14.6996989 C215.850743,15.4992298 217.460158,16.6025825 218.286886,17.1482623 C219.113613,17.6959409 220.256618,18.5734261 220.82712,19.0991176 C224.005916,22.0254007 224.780598,22.7789586 226.117774,24.2381024 C226.924483,25.1215841 228.229631,26.6806693 229.016323,27.7040688 C229.803015,28.7274684 230.555677,29.656923 230.687794,29.7708562 C230.815106,29.8787928 231.764661,31.4539486 232.704559,33.0780357 L232.972121,33.5421669 C233.503843,34.4681915 234.006541,35.3660875 234.324993,35.9712182 C236.00447,39.1593476 236.448861,40.1547636 236.448861,40.7204317 C236.448861,41.0822194 236.795166,42.06964 237.217537,42.9131451 C237.606546,43.6863581 238.022467,45.0339841 238.192391,46.0414971 L238.272262,46.571996 C238.440682,47.5736051 238.84697,48.8839751 239.2213,49.6132139 C240.468397,52.0337937 240.318265,73.9069599 239.027129,77.8726331 C238.520683,79.4317184 238.104317,81.2926265 238.102315,82.0062078 C238.100314,82.721788 237.828074,83.8271394 237.495782,84.4607677 C237.165491,85.0963947 236.769143,86.3056852 236.615007,87.1491903 C236.462873,87.9906965 235.988456,89.3718861 235.564083,90.2153912 C235.139709,91.0588963 234.791403,92.0822958 234.789401,92.4880578 C234.789401,92.8958185 234.417074,93.7872954 233.964676,94.4688955 C233.512278,95.1504956 233.13995,95.9700148 233.13995,96.2898271 C233.137499,96.6704201 231.811435,99.5182869 230.404425,102.302192 L230.122312,102.857371 C229.32202,104.423709 228.522338,105.915322 227.949385,106.871618 C227.402904,107.781085 226.7163,108.990375 226.424043,109.558042 C225.463198,111.420949 220.034423,119.224371 217.98462,121.686926 C213.252457,127.37159 208.652411,132.140792 204.76299,135.396882 C204.053844,135.98923 203.386656,136.55274 202.894477,136.97301 L202.663587,137.170678 C202.448514,137.35535 202.282736,137.499445 202.182885,137.588662 L202.105627,137.659057 L201.998996,137.765953 C201.235181,138.512914 198.946448,140.221761 196.582187,141.884799 L196.014056,142.282532 C193.268255,144.195673 190.576849,145.938696 190.202182,145.938696 C189.961971,145.938696 189.535596,146.214535 189.255349,146.554335 C188.948858,146.922934 186.369414,148.326716 183.676518,149.683835 L183.054049,149.995696 C180.356477,151.339234 177.711566,152.55289 177.278815,152.554814 C176.918498,152.556813 176.065748,152.928595 175.381146,153.38033 C174.698545,153.832065 173.759719,154.201848 173.295311,154.203847 C172.830902,154.205846 171.719925,154.577628 170.82714,155.03336 C169.934355,155.487094 168.583166,155.858876 167.824499,155.858876 C167.067833,155.858876 165.75668,156.206672 164.911937,156.630423 C163.99513,157.090153 162.03941,157.495915 160.063672,157.635833 C159.530466,157.673758 159.036183,157.715482 158.548888,157.766814 L158.132174,157.813301 L157.714414,157.865307 C155.825442,158.112973 153.768978,158.552979 149.712567,159.518728 C147.892967,159.952474 147.98705,161.03384 150.130935,164.333903 C151.165846,165.926969 152.388922,167.971769 152.849327,168.881235 C153.309731,169.790702 153.850207,170.814101 154.050383,171.155901 C154.250559,171.4977 154.781026,172.613046 155.225417,173.636445 C155.671809,174.659845 156.524559,176.554733 157.119082,177.847974 C157.713605,179.141215 158.200033,180.398478 158.200033,180.640336 C158.200033,180.882194 158.572361,181.77567 159.028762,182.623172 C159.483162,183.472674 159.855489,184.494075 159.855489,184.897838 C159.855489,185.299602 160.227817,186.323001 160.684218,187.170504 C161.138618,188.020006 161.512947,188.975445 161.512947,189.295258 C161.512947,189.613071 161.859252,190.640468 162.283625,191.573921 C163.056305,193.27892 163.546736,194.576159 164.727775,198.028134 C165.078083,199.051533 165.614555,200.180871 165.922826,200.540659 C166.229095,200.89845 166.481317,201.422142 166.481317,201.701978 C166.481317,202.275641 168.040689,205.77159 169.822256,209.189585 C170.47483,210.440851 171.313568,212.159842 171.687897,213.013341 C172.060224,213.866841 172.53264,214.564431 172.734818,214.564431 C172.938997,214.564431 173.105144,214.806289 173.105144,215.100117 C173.105144,215.871802 175.366272,219.26708 177.95566,222.633706 L178.389933,223.19409 C179.845431,225.058122 181.369102,226.867833 182.629521,228.168449 C190.464413,236.253705 202.87533,241.786459 215.682595,242.901805 C220.180551,243.293575 220.374722,244.298985 216.879648,249.064189 C216.058324,250.18072 214.861195,252.063099 214.347923,253.001308 L142.970969,252.998617 C142.873162,252.736432 142.77408,252.518752 142.682384,252.374247 C142.388125,251.910519 141.92772,250.471363 141.659484,249.178122 C141.389246,247.882882 141.012915,246.72756 140.822748,246.609629 C140.630579,246.491698 140.350332,245.418328 140.2002,244.225028 C140.048066,243.031728 139.565642,240.984929 139.125255,239.675698 C138.686869,238.368465 138.326552,236.67146 138.326552,235.905909 C138.326552,235.188206 137.999311,233.569273 137.583992,232.197058 L137.415305,231.654831 C136.998337,230.276665 136.671096,228.608191 136.671096,227.828649 C136.671096,226.999135 136.388848,225.302131 136.042543,224.058861 C135.69824,222.81559 135.239837,219.997244 135.02765,217.796535 C134.815464,215.595826 134.369071,212.805463 134.036779,211.596173 C133.702485,210.384884 133.318147,207.598518 133.182027,205.399808 C133.051826,203.298607 132.714667,200.910284 132.419314,199.942139 L132.339271,199.696152 C132.04309,198.727957 131.696024,196.318354 131.54859,194.190385 C131.396456,191.96769 131.012118,189.363218 130.697842,188.403781 C130.383566,187.444344 129.997226,185.169678 129.837085,183.350745 C129.678946,181.531813 129.304616,179.453032 129.004352,178.729457 C128.704088,178.00788 128.325755,176.332863 128.165615,175.009639 C128.003472,173.686416 127.631144,172.131328 127.338887,171.555666 C127.04663,170.978005 126.676305,169.768714 126.516164,168.867243 C126.358025,167.965772 126.005715,166.856423 125.733475,166.402689 C125.461236,165.946957 125.012841,164.793634 124.734597,163.840193 C123.709695,160.310264 121.25954,159.696624 120.681031,162.826788 C120.528897,163.656301 120.058484,164.983522 119.636112,165.775058 C119.213741,166.568592 118.869438,167.540022 118.869438,167.93579 C118.869438,168.331558 118.49711,169.26501 118.04271,170.008574 C117.588311,170.754136 117.213982,171.73556 117.21198,172.189294 C117.209978,172.645027 116.83765,173.574481 116.385253,174.256082 C115.932855,174.937682 115.560527,175.869135 115.556524,176.322869 C115.554522,176.778602 115.180193,177.708056 114.727795,178.389656 C114.275397,179.073255 113.905071,179.874785 113.903069,180.17261 C113.901067,180.470435 113.41464,181.773671 112.820117,183.066912 C112.223592,184.360153 111.386856,186.209068 110.956477,187.174502 C110.526099,188.141934 109.779442,189.816951 109.297018,190.896318 C107.525459,194.857994 101.362038,206.992874 99.7966612,209.603342 C98.9098812,211.080475 98.1812402,212.52163 98.175235,212.807462 C98.1712314,213.091296 97.9770606,213.32316 97.7428546,213.32316 C97.5106504,213.32316 97.1403246,213.792884 96.9221327,214.368546 C96.7039408,214.94221 96.3296115,215.6398 96.0934038,215.917637 C95.8832189,216.162788 95.2475733,217.094213 94.6058771,218.0899 L94.3498701,218.490128 C93.6272345,219.627461 92.6543788,221.044629 92.1859668,221.638281 C91.7195565,222.231932 91.0569737,223.135402 90.7146726,223.649101 C89.489595,225.488022 85.0897249,230.934826 83.4943216,232.587856 C83.2541103,232.83771 82.1991824,233.963049 81.1522615,235.088389 C80.1033388,236.213729 77.3048773,238.706266 74.9287873,240.627139 C71.4683212,243.430117 70.2841804,244.357194 68.996838,245.115394 L68.7681043,245.247788 C68.4219438,245.444793 68.0587444,245.637 67.6343711,245.856071 C66.8937196,246.237847 66.2891879,246.685585 66.2891879,246.853486 C66.2891879,247.021388 65.6506262,247.369184 64.8719412,247.625033 C64.0932563,247.882882 63.2324992,248.362601 62.958258,248.690408 C62.6860185,249.020215 62.087492,249.290056 61.6290888,249.290056 C61.1726874,249.290056 60.2158457,249.645848 59.5072224,250.081592 C58.7965973,250.517336 57.46943,251.007049 56.5586288,251.168954 C55.6478277,251.32886 54.6249279,251.700642 54.2826268,251.990472 C53.9403257,252.282301 52.356933,252.648086 50.7635314,252.801996 C49.1701299,252.957904 46.9461737,253.347676 45.8231859,253.669487 C43.1888687,254.419047 35.6822659,254.425044 32.7376758,253.677482 C31.4945824,253.361668 29.1725399,252.971896 27.5791383,252.81199 C25.983735,252.650085 24.4003423,252.278303 24.0600429,251.982477 C23.7177418,251.688649 22.6007593,251.310871 21.5758578,251.142969 C20.5509563,250.975068 19.2678277,250.489353 18.7253505,250.063603 C18.1808716,249.637852 17.4182007,249.290056 17.0278574,249.290056 C16.6395158,249.290056 15.8908573,248.918275 15.3643942,248.462542 C14.8399329,248.008808 14.1873589,247.637026 13.9151194,247.637026 C12.4778552,247.637026 5.38161331,241.346717 2.67122925,237.668875 C-0.765793972,233.00761 -0.815837991,232.10414 2.11674152,227.586791 C2.55913064,226.903192 3.34582262,225.623942 3.86427866,224.740461 C4.85314847,223.055449 5.14140202,222.587724 6.43854299,220.558914 C6.7537091,220.065204 7.4301436,219.006405 8.13755391,217.899821 L8.46504774,217.38758 C8.62869168,217.131647 8.79127913,216.877407 8.94875098,216.631219 C9.8915803,215.152086 10.7943744,213.664959 10.9505117,213.32316 C11.0888834,213.025834 11.6287959,212.133201 12.2135368,211.229091 L12.4658446,210.842615 C13.0954651,209.887442 13.7878608,208.770337 14.0694276,208.256733 L14.1770731,208.055276 C14.4576767,207.540046 15.1425991,206.422941 15.7647464,205.467769 C16.4293309,204.446368 17.5803434,202.58546 18.3229966,201.334194 C19.0656498,200.084927 19.9143964,198.815672 20.2086552,198.515847 C20.5049158,198.216023 20.855224,197.530426 20.9913437,196.99474 C21.1254617,196.459054 21.4977892,195.919371 21.8200726,195.797442 C22.1403544,195.673515 22.402585,195.315725 22.402585,195.003908 C22.402585,194.690092 22.728872,194.042472 23.1272224,193.562754 C23.5255728,193.085034 24.4103511,191.749817 25.0949532,190.598493 C29.833121,182.611179 31.9249609,180.068671 31.9249609,182.297363 C31.9249609,185.423529 38.8950919,190.878329 44.3899252,192.053639 C58.2961572,195.031892 69.6281248,188.781559 79.8411082,172.50311 C80.8059569,170.966012 81.7848179,169.243023 82.0150204,168.675356 C82.2452229,168.107689 82.6215539,167.362126 82.8497546,167.022326 C83.0779553,166.680526 83.4502828,165.936963 83.6784836,165.367297 C83.9046825,164.79963 84.27701,164.056066 84.5052107,163.714267 C84.7354132,163.374466 85.1117443,162.628904 85.3459503,162.061237 C85.5781545,161.491571 86.034556,160.47017 86.3568394,159.786571 C87.9242181,156.484509 89.0592165,153.802083 89.0592165,153.404316 C89.0592165,153.160459 89.431544,152.268982 89.8879454,151.419481 C90.3120518,150.628478 90.6646642,149.766086 90.7097942,149.418974 L90.7195765,149.286786 C90.764939,148.94129 91.1192952,148.078774 91.5434016,147.285906 C91.999803,146.438403 92.3781358,145.460977 92.3861428,145.117178 C92.3941499,144.77338 92.7604721,143.745983 93.1988577,142.836517 C93.6392451,141.92705 94.0075691,140.905649 94.0155761,140.56385 C94.0255849,140.222051 94.3298525,139.384542 94.6921712,138.702942 C95.0544899,138.021342 95.5969671,136.62616 95.8972312,135.602761 C96.8560746,132.342674 97.8029075,129.640259 98.3593969,128.574884 C98.6576593,128.007217 99.0399956,126.893871 99.2101453,126.100336 C99.3802949,125.308801 99.7546242,124.285401 100.044879,123.82767 C100.333133,123.367939 100.707462,122.342541 100.873608,121.547008 C101.039755,120.751475 101.524181,119.452237 101.948554,118.658703 C102.374929,117.867167 102.721234,116.88974 102.721234,116.487976 C102.721234,116.086212 103.095563,115.062812 103.549963,114.213311 C104.006364,113.365808 104.378692,112.290439 104.378692,111.826711 C104.378692,111.362983 104.63892,110.609425 104.959202,110.155692 C105.277482,109.699959 105.761908,108.500663 106.034148,107.491255 C106.306387,106.481847 106.790813,105.282551 107.109093,104.826818 C107.429375,104.373084 107.689604,103.713471 107.689604,103.361678 C107.689604,103.011883 108.061931,102.030459 108.518333,101.182956 C108.972732,100.333455 109.347062,99.4419776 109.347062,99.1981207 C109.347062,98.9562626 109.827484,97.7009991 110.418004,96.4077579 C111.006521,95.1125179 111.725154,93.4974655 112.013407,92.8158654 C112.301661,92.1322665 112.920205,90.7370851 113.386615,89.7136856 C113.855027,88.6922849 114.725793,86.7374319 115.326321,85.3742317 C115.924848,84.0090327 116.591434,82.6138513 116.807624,82.2740507 C117.021812,81.9322512 117.952631,80.165288 118.873441,78.3463552 C119.113897,77.8715119 119.36364,77.3852534 119.617996,76.8959723 L120.079808,76.0138145 C120.906072,74.4461758 121.750834,72.8991472 122.460868,71.6477302 L122.720516,71.1928427 C123.352352,70.0929515 123.84894,69.2830876 124.084024,68.989845 C124.332243,68.6780279 124.63651,68.1403434 124.76062,67.7905487 C124.952789,67.24287 131.504552,57.3846542 132.541464,56.0834176 C138.194436,48.9815845 142.930602,43.8985669 147.022201,40.542536 C148.501502,39.3272491 149.80665,38.2139023 149.920751,38.0679879 C150.032849,37.9220736 151.057751,37.2084922 152.196752,36.482918 C153.335754,35.7593425 154.5248,34.9458198 154.839077,34.6739793 C155.755883,33.8864414 163.262486,30.1846134 163.971109,30.1706216 C164.327423,30.1626263 164.967986,29.8927846 165.398365,29.5669758 C165.826741,29.2431658 167.037807,28.8613898 168.088731,28.719473 C169.139656,28.5775563 171.071355,28.1058331 172.382508,27.6680899 C175.737459,26.5527443 177.987438,26.6047138 178.439836,27.806009 C180.531676,33.3887334 180.50165,33.5286513 176.882466,35.2536392 C170.468825,38.309846 164.193305,43.8585904 161.340796,48.9935775 C160.960461,49.6751776 160.213804,50.9784129 159.681336,51.8878793 C157.521436,55.5677202 154.474756,62.0339263 154.474756,62.9353973 C154.474756,63.2831933 154.20652,63.7908954 153.880233,64.0607371 C153.551945,64.3325776 153.161601,65.1461003 153.011469,65.8696757 C152.859335,66.5912523 152.499018,67.5586847 152.210765,68.0164161 C151.92051,68.4741476 151.542177,69.4975471 151.368024,70.2910815 C151.19387,71.0826171 150.703439,72.379856 150.279066,73.1713915 C149.852691,73.9649259 149.506386,74.9483489 149.506386,75.3581085 C149.506386,75.7698669 149.134059,76.8352418 148.677657,77.7267188 C148.223257,78.6161969 147.848928,79.7335413 147.848928,80.2052645 C147.848928,80.6789866 147.502624,81.7563544 147.07825,82.5998595 C146.653877,83.4433646 146.173454,84.8585343 146.013314,85.7440147 C145.851171,86.6294952 145.47484,87.7468396 145.174576,88.2245593 C144.876313,88.702279 144.501984,89.8196234 144.347849,90.7051039 C144.191711,91.5905843 143.819384,92.7079288 143.521121,93.1856485 C143.222859,93.6633682 142.86054,94.8586668 142.714412,95.8420898 C142.568283,96.823514 142.193954,98.0328045 141.883681,98.5285136 C141.573408,99.0242228 141.191072,100.15356 141.034935,101.041039 C140.878797,101.92652 140.50647,103.041865 140.206206,103.521584 C139.907943,103.999304 139.531612,105.128641 139.373473,106.030112 C139.228512,106.856461 138.898528,107.946502 138.611715,108.572002 L138.457674,108.889513 C138.170276,109.516553 137.836621,110.606594 137.687991,111.432942 C137.523846,112.334413 137.203564,113.307842 136.975364,113.595673 C136.747163,113.883504 136.316784,115.090796 136.018522,116.282097 C135.536098,118.216962 135.161768,119.428251 133.682467,123.821673 C133.454267,124.503273 133.005872,125.990401 132.689594,127.127733 C132.371314,128.265066 131.83284,129.782176 131.492541,130.497756 C131.154243,131.213336 130.875999,132.200757 130.875999,132.69047 C130.875999,133.180182 130.499668,134.403465 130.041264,135.406876 C128.583983,138.604999 128.469882,141.97902 129.791044,142.844512 C132.735634,144.769382 145.194593,143.138339 152.196752,139.910233 C152.879353,139.596418 154.090418,139.060732 154.887119,138.718932 C166.64346,133.705874 186.843228,114.86293 191.469297,104.596953 C191.623432,104.257152 192.290019,103.139808 192.9506,102.116408 C194.339822,99.9676692 199.602451,89.6377301 199.602451,89.0580703 C199.602451,88.8441957 199.948755,88.0206789 200.37513,87.2271445 C200.799504,86.4356089 201.289935,85.1383701 201.464088,84.3468345 C201.638241,83.5533001 202.016574,82.5299006 202.30683,82.0721691 C202.597085,81.6144377 202.967411,80.4031484 203.129553,79.3797489 C203.291696,78.3563493 203.680037,77.0231316 203.99031,76.4174869 C204.300583,75.8118423 204.666905,74.23077 204.805027,72.9035487 C204.943148,71.5763274 205.357513,69.5615096 205.723835,68.4241769 C206.662661,65.5118856 206.67267,51.7479614 205.737847,49.601221 C205.387539,48.7976924 204.969171,47.0806999 204.807029,45.783461 C204.644886,44.4862221 204.350627,43.3269023 204.154455,43.2049739 C203.95628,43.0830454 203.499879,41.9637022 203.135558,40.7184328 C202.77324,39.4711646 202.314837,38.4517628 202.118664,38.4517628 C201.922491,38.4517628 201.646248,37.9900337 201.504123,37.4263644 C201.361998,36.8626951 200.271039,34.9778011 199.077989,33.2408202 C179.02435,4.0039745 115.644601,7.12614262 85.397996,38.8395352 C82.3072774,42.081633 77.8813844,47.4205005 77.8813844,47.9082143 C77.8813844,48.1640642 77.6992242,48.3739411 77.475027,48.3739411 C77.2528315,48.3739411 76.6923385,49.0715318 76.2299318,49.925031 C75.2050303,51.8139227 74.5864862,52.8133363 73.6376516,54.1085764 C73.2393012,54.6542562 72.9130142,55.3718352 72.9130142,55.7016417 C72.9130142,56.0057965 72.6001557,56.6559428 72.1964673,57.2086741 L71.9725631,57.5048603 C71.5704166,58.0607852 71.2575581,58.7408584 71.2575581,59.0816585 C71.2575581,59.4514415 70.9092517,60.4028833 70.4848784,61.1964177 C70.0585034,61.9879532 69.5780808,63.2432167 69.4159382,63.9847816 C69.2517938,64.7243477 68.873461,65.8416921 68.5751986,66.4653262 C68.2749345,67.0869615 67.9006053,68.7140068 67.7424662,70.077207 C67.5843271,71.442406 67.1939837,73.5731558 66.8717002,74.8144275 C66.0069396,78.1624631 66.1330505,85.1283759 67.1259239,88.8601864 C67.57632,90.5491954 67.944644,92.2761821 67.944644,92.6979346 C67.944644,93.7273306 70.8992429,99.2400961 72.5506955,101.292892 C74.4423594,103.643512 79.5548564,106.66374 81.6426929,106.66374 C83.6884924,106.66374 83.6344448,107.769092 81.4064851,111.41895 C80.8499956,112.328417 80.1533829,113.537707 79.8571223,114.105374 C79.5628634,114.67504 78.7701662,115.976276 78.0995763,116.999676 C76.788423,118.996504 75.8335831,120.603561 74.7826587,122.580402 C74.4203401,123.262002 73.5796005,124.657183 72.9130142,125.680583 C72.2464279,126.703982 71.4156972,128.099163 71.065389,128.780764 C70.7170827,129.464362 70.0625069,130.579708 69.6141125,131.261308 C69.1637163,131.944907 68.4110543,133.154197 67.9406405,133.949731 C67.4702267,134.745264 66.6334907,136.140445 66.0810047,137.049912 C65.5285188,137.959378 64.8379113,139.168669 64.5436525,139.738334 C64.3201618,140.173961 63.7443266,141.147265 63.1285539,142.139822 L62.8426529,142.597404 C62.7471657,142.749128 62.6518708,142.899421 62.5579058,143.046393 C62.1807092,143.635993 61.8610474,144.135922 61.5873627,144.565315 L61.2098735,145.158895 C60.5180818,146.249818 60.1880724,146.792029 59.9077816,147.302188 L59.8157647,147.471762 C59.6943892,147.698168 59.5759856,147.929582 59.4331573,148.211363 C59.0888544,148.892963 58.2581237,150.290143 57.5875338,151.311544 C56.916944,152.334943 56.1682855,153.634181 55.9200671,154.19785 C55.6962339,154.710277 55.3946463,155.217748 55.2138261,155.394384 L55.1388016,155.458297 C54.8479711,155.743449 53.4333438,158.066017 51.9869756,160.605163 L51.7069302,161.098826 C51.6136452,161.263956 51.5205213,161.429498 51.4278518,161.594964 L51.1514997,162.090644 C51.0600322,162.255468 50.9693124,162.419726 50.8796336,162.582931 C49.3062496,165.441254 48.5595928,165.837021 46.0013426,165.15742 C44.7502421,164.823616 42.9426522,164.549777 41.9878123,164.545779 C40.9368879,164.54378 39.479606,164.132022 38.3025707,163.508388 C37.2316287,162.938722 36.0225652,162.474994 35.614206,162.474994 C35.2058468,162.474994 34.7674612,162.305094 34.6413503,162.101213 C34.5132376,161.895334 33.338204,161.123787 32.0290525,160.38622 C27.9314482,158.077574 19.0916727,148.930941 19.0916727,146.998075 C19.0916727,146.712243 18.7193452,146.048632 18.2629438,145.524939 C17.8085441,145.001246 17.4342148,144.269676 17.4342148,143.899893 C17.4342148,143.53011 17.1699824,142.850508 16.8456972,142.38678 C15.9929471,141.173492 14.5857093,137.071899 13.9191229,133.863781 C13.6028447,132.338676 13.1004028,130.663659 12.8021404,130.143964 C12.3821478,129.409101 12.2006599,122.99896 12.2238185,116.238003 L12.2272321,115.485613 L12.2338168,114.547723 L12.2410851,113.78424 L12.2454443,113.395856 L12.2554805,112.621912 C12.342774,106.448992 12.5978101,100.780761 12.9943095,99.749797 C13.3626334,98.7883611 13.7830032,96.8335081 13.92713,95.4083443 C14.069255,93.9811817 14.5456741,91.9443768 14.9840597,90.8790018 C15.4204435,89.8136269 15.784764,88.5103916 15.792771,87.9847 C15.8007781,87.4570097 16.1671003,86.2836981 16.6074876,85.3742317 C17.047875,84.4647653 17.4141972,83.3993904 17.4202025,83.0076203 C17.4282095,82.6158501 17.8305635,81.4065597 18.3129878,80.3211965 C20.2767151,75.8977919 20.7251095,74.9203653 22.0222505,72.2279451 C22.7669055,70.6828516 23.515564,69.3316444 23.6857137,69.2257066 C23.8558633,69.1197688 24.118094,68.4781452 24.2682261,67.798544 C24.4163563,67.1189427 24.7146187,66.5632687 24.9308089,66.5632687 C25.1449973,66.5632687 25.4893001,66.1255256 25.6914779,65.5918387 C27.4990679,60.8466229 39.4075427,46.4610634 47.478642,39.2752796 C48.7417218,38.1504708 50.5895117,36.6068716 52.5198429,35.0404169 L53.3507173,34.3688341 C53.5358284,34.2197956 53.7210374,34.0710628 53.9059107,33.9229778 L54.4590892,33.4810079 C57.7669104,30.8449525 60.8253819,28.5295845 61.1046275,28.5295845 C61.200712,28.5295845 62.1475449,27.9259386 63.2064763,27.1863726 C66.3652548,24.9856638 67.2580401,24.4239934 68.5992198,23.7983604 C69.299836,23.4725516 70.1145527,22.91288 70.4088115,22.5590876 C70.7030703,22.2052951 71.2655651,21.9154652 71.6579102,21.9154652 C72.0502553,21.9154652 72.7088346,21.5436833 73.1191956,21.0879507 C73.5315583,20.6342169 74.1881358,20.2624351 74.5764774,20.2624351 C74.9668207,20.2624351 75.7294916,19.9366263 76.2719688,19.5388596 C77.2147981,18.8492642 81.1202333,16.8324476 82.4353901,16.3567267 C82.7776912,16.2347982 83.3361825,15.9569613 83.6764818,15.7430867 C84.8855453,14.9835324 89.0171795,13.2345586 89.6036954,13.2345586 C89.9319842,13.2345586 90.4284208,12.9607193 90.7066656,12.6249163 C90.9849103,12.2891133 91.8937097,11.8913467 92.7244404,11.737437 C93.5551711,11.5855261 94.6781589,11.1158017 95.2226378,10.6940492 C95.765115,10.2722967 96.6498933,9.92649955 97.1903687,9.92649955 C97.6874213,9.92649955 98.6944609,9.609715 99.5155855,9.20410501 L99.9176916,8.9974361 C100.741386,8.59025398 101.776711,8.27346944 102.308871,8.27346944 C102.883376,8.27346944 104.050403,7.90168758 104.901151,7.44595497 C105.749898,6.99222119 106.964966,6.62043933 107.601526,6.62043933 C108.236085,6.62043933 109.487185,6.24665864 110.381972,5.79292486 C111.274757,5.33719226 112.724032,4.96541039 113.600803,4.96541039 C114.477575,4.96541039 116.068974,4.60961915 117.135913,4.17387482 C118.202851,3.73813048 120.200609,3.28039905 121.575818,3.15647176 C122.951028,3.03054565 124.720584,2.66675909 125.509278,2.34694674 C126.297972,2.02713438 128.804176,1.64136073 131.08218,1.49144869 C133.358182,1.33953782 136.154642,0.961759477 137.291642,0.647943604 C138.591243,0.290545329 144.098242,0.0791414262 150.235975,0.0183586905 L151.039832,0.0112850721 L151.443892,0.00838961423 L152.463705,0.00300324915 L153.487138,0.000323585786 L154.51069,0.000355149392 C161.497406,0.00984450034 168.247522,0.209549663 169.738182,0.605968233 Z M677.789066,127.489521 C674.878816,131.940944 672.24554,136.036082 670.615746,138.631247 L670.360366,139.038756 C669.872789,139.818546 669.492623,140.437462 669.243884,140.857694 L669.110604,141.085688 C669.032522,141.221386 668.976236,141.324085 668.943285,141.391364 C668.777139,141.731165 668.186619,142.754565 667.634133,143.664031 C665.772496,146.720238 665.704436,146.924118 666.160837,148.119417 C666.549179,149.140818 666.783385,149.244757 668.695066,149.244757 C672.264206,149.244757 677.871138,152.382915 679.308402,155.181273 C679.674724,155.894855 680.145138,156.590447 680.351319,156.724368 C680.883788,157.068166 681.60242,162.419027 681.322173,163.950128 C680.809723,166.766476 677.448766,167.414096 675.945444,164.98752 C674.79243,163.122614 668.749114,165.1914 666.024718,168.383527 C662.681777,172.301229 660.836154,181.68972 663.050101,183.524643 C663.370383,183.788489 663.740709,184.444104 663.876828,184.981788 C664.171087,186.1551 667.776258,189.475152 670.10831,190.72242 C673.229055,192.391441 681.242103,192.053639 685.307679,190.080797 C689.903722,187.852104 697.24618,180.330517 697.24618,177.853971 C697.24618,177.592124 697.618508,176.768607 698.072907,176.023045 C698.527307,175.279481 698.901636,174.298057 698.903638,173.842324 C698.90564,173.388591 699.205904,172.459136 699.570224,171.775537 C701.093564,168.921212 701.09957,155.157288 699.578231,152.344938 C699.209907,151.663338 698.90564,150.733883 698.903638,150.27815 C698.901636,149.824416 698.549326,148.878971 698.12095,148.177383 C697.692573,147.475795 697.216154,146.326469 697.062018,145.622882 C696.905881,144.917296 696.511534,144.119764 696.185247,143.849922 C695.85896,143.578081 695.590724,143.032402 695.590724,142.636634 C695.590724,142.238867 695.242418,141.471318 694.816043,140.929635 C694.391669,140.387953 693.913248,139.352561 693.755109,138.628985 C693.59697,137.90541 693.212632,137.101881 692.900358,136.844033 C692.588083,136.584185 692.215755,135.840621 692.071629,135.189004 C691.929504,134.539385 691.545166,133.783828 691.216877,133.513986 C690.89059,133.242146 690.622354,132.710458 690.622354,132.33268 C690.622354,131.952902 690.262037,130.937498 689.82165,130.074005 C689.381262,129.210511 688.816766,127.557481 688.568547,126.398161 C688.318327,125.238842 687.927984,124.06553 687.697781,123.789692 C687.469581,123.513854 687.169317,122.29257 687.033197,121.073286 C686.895075,119.856 686.614829,118.534775 686.410649,118.137009 C685.571911,116.501968 683.504093,118.746651 677.789066,127.489521 Z M441.911587,124.701157 C438.544625,129.812158 437.793965,130.995464 437.351576,131.882943 C437.069328,132.45061 436.65096,133.194174 436.420757,133.535973 C436.190555,133.877773 435.818227,134.621337 435.590026,135.189004 C435.363827,135.758669 435.007514,136.502233 434.799331,136.844033 C434.591148,137.183833 433.920558,138.579015 433.308019,139.944214 C433.144675,140.307734 432.965104,140.706646 432.781756,141.113471 L432.505457,141.726208 C432.091429,142.64391 431.689796,143.532108 431.442378,144.077788 C428.880124,149.714481 429.324515,152.073097 433.566246,155.351174 C435.473924,156.824309 444.623973,156.756349 446.353494,155.257229 C446.695795,154.959404 447.430441,154.577628 447.986931,154.407727 C449.161964,154.049937 452.302727,151.917189 455.231303,149.492611 C457.677455,147.4658 464.393362,139.094712 465.706517,136.436272 C465.988765,135.864607 466.863535,134.279537 467.652228,132.916337 C468.440922,131.551138 469.095498,130.131971 469.105507,129.762188 C469.115516,129.392405 469.385753,128.874708 469.702031,128.610863 C470.020311,128.347018 470.394641,127.523501 470.534764,126.779937 C470.674887,126.036374 471.159313,124.701157 471.613713,123.813678 C472.066111,122.926199 472.444444,121.632957 472.452451,120.943362 C472.460458,120.251768 472.732697,119.222372 473.058984,118.652706 C474.720446,115.750409 473.425306,108.426706 470.965142,106.81765 C464.779702,102.772024 450.615243,111.490908 441.911587,124.701157 Z M370.00834,42.3974477 C368.511023,44.4342526 367.143821,46.2851666 366.969668,46.5130329 C366.676543,46.8992064 365.539803,48.6353011 364.354156,50.4972239 L364.04427,50.9849924 C363.785978,51.3925033 363.528641,51.8009303 363.280423,52.1976975 C362.673889,53.1631311 361.871183,54.4203934 361.49285,54.9880603 C361.114517,55.5557273 360.668125,56.3012898 360.501979,56.6410904 C360.335832,56.9828899 359.761327,58.0062894 359.224855,58.9157558 C358.614089,59.9495099 356.202444,64.6692438 353.912424,69.2450813 L353.497825,70.0746136 C351.710746,73.6549933 350.071492,77.0019637 349.520319,78.2424162 C349.34562,78.6349132 349.133069,79.1077597 348.911447,79.5978103 L348.575807,80.3378959 C348.296433,80.9522312 348.025368,81.5441153 347.818822,81.9902172 C347.362421,82.9716414 346.990093,83.9550644 346.990093,84.1769342 C346.990093,84.398804 346.617766,85.3082704 346.163366,86.1997473 C345.706965,87.0932231 345.334637,88.1326133 345.334637,88.5103916 C345.334637,88.8901688 345.074408,89.4158603 344.756128,89.6777067 C344.43985,89.9415519 344.05351,90.8270323 343.899375,91.6465515 C343.745239,92.4640718 343.260813,93.8032861 342.820426,94.6228052 C342.38204,95.4403256 342.021723,96.4397392 342.021723,96.8415034 C342.021723,97.2432677 341.649396,98.2666672 341.194996,99.11417 C340.738595,99.9636716 340.366267,101.087012 340.366267,101.610705 C340.366267,102.134398 339.99394,103.291719 339.537538,104.183196 C339.083139,105.074673 338.704806,106.229995 338.696799,106.751689 C338.688792,107.271384 338.322469,108.442697 337.882082,109.352163 C337.475571,110.19167 337.128757,111.364994 337.068359,112.076635 L337.050707,112.412724 C336.993087,113.125937 336.665319,114.29926 336.284677,115.138768 C335.870312,116.048234 335.403902,117.75923 335.247765,118.938538 C335.089626,120.119845 334.707289,121.700918 334.397017,122.452477 C334.086744,123.206034 333.698402,125.012974 333.532256,126.46812 C333.368112,127.925265 332.973765,129.734204 332.659488,130.485763 C330.755814,135.035094 332.639471,138.423106 336.088504,136.656143 C336.733071,136.326336 338.154322,135.65473 339.243279,135.165018 C344.521922,132.790411 356.538492,120.74148 362.309569,112.034589 C362.612057,111.576191 363.167607,110.808247 363.612092,110.226311 L363.772856,110.017772 C364.406021,109.207378 366.204555,106.507734 368.002009,103.718889 L368.64703,102.714161 C369.099461,102.006613 369.542783,101.307254 369.957855,100.645622 L370.362802,99.9976589 C370.95397,99.0478607 371.46722,98.2051023 371.83795,97.5690765 C372.302358,96.7735433 373.049015,95.5642528 373.495408,94.8826528 C373.939799,94.1990539 374.63441,92.9917622 375.034762,92.1942302 C375.437116,91.3986969 375.883508,90.6551332 376.029637,90.5412 C376.173764,90.4272669 376.596135,89.6837032 376.966461,88.8881699 C377.336787,88.0926367 378.473787,85.9518928 379.490681,84.13296 C380.507576,82.3140272 381.536481,80.361173 381.778694,79.7935061 C382.020907,79.2238403 382.975747,77.1770413 383.898558,75.2461742 C384.823372,73.3133083 385.91233,70.9866734 386.318687,70.077207 C386.504305,69.6638132 386.755683,69.107528 387.019807,68.5253001 L387.339481,67.8216589 C387.552152,67.3542427 387.759409,66.900162 387.934108,66.5192946 C388.412529,65.4699103 388.806876,64.3765518 388.806876,64.0867218 C388.806876,63.7968919 389.159186,62.9813704 389.589564,62.2717867 C390.019943,61.5622031 390.510374,60.3349231 390.678522,59.5413887 C390.84667,58.7498532 391.218997,57.7264536 391.505249,57.2687222 C391.791501,56.8109908 392.15382,55.709637 392.309957,54.8241565 C392.464093,53.938676 392.838422,52.8233305 393.138686,52.3436119 C393.43895,51.8658922 393.807274,50.5986358 393.959408,49.5292632 C394.10954,48.4578918 394.52991,46.9907526 394.890227,46.269176 C395.612862,44.8200263 396.177359,34.7719219 395.682924,32.1414652 C395.358639,30.4104809 393.611102,28.3217064 391.987674,27.7200594 C386.791103,25.7991865 377.799193,31.8036634 370.00834,42.3974477 Z M285.774248,38.0479997 C291.817564,35.3096064 300.054809,38.0420032 302.631075,43.6407182 C303.806109,46.1932206 303.407758,56.0954106 302.046561,58.1781886 C301.718272,58.681893 301.450036,59.2975318 301.450036,59.5473852 C301.450036,60.2849525 298.953841,65.2320498 298.313277,65.7637379 C297.988992,66.0315807 297.722758,66.4413403 297.722758,66.6732042 C297.722758,67.0829638 294.704103,70.7787954 292.8825,72.5997269 C289.86985,75.6099607 282.955769,79.783512 280.962015,79.7995026 C280.503612,79.8015014 279.382626,80.0733419 278.471825,80.4011496 C271.958095,82.7437751 263.658795,78.4283071 262.559828,72.1280037 C261.78915,67.7125944 262.317615,60.428868 263.548698,58.4960021 C263.840955,58.0382707 264.209279,57.0748359 264.367418,56.3552582 C264.525557,55.6336815 264.921906,54.8241565 265.250195,54.552316 C265.576482,54.2824743 265.846719,53.8507276 265.850723,53.5948778 C265.878748,51.9298547 273.15715,43.7346631 275.833504,42.3514747 C276.580161,41.9676998 277.444921,41.3980341 277.755194,41.086217 C278.067469,40.7744 278.653985,40.5185501 279.05834,40.5185501 C279.462696,40.5185501 280.223365,40.1467682 280.747827,39.6930345 C281.27429,39.2373019 282.213115,38.86552 282.835663,38.86552 C283.460212,38.86552 284.781374,38.4977358 285.774248,38.0479997 Z" id="Combined-Shape" fill="#FCF7E8"></path>
        <path d="M56.68,274.6 L65.752,274.6 L80.728,307.144 L80.872,307.144 L95.92,274.6 L104.992,274.6 L104.992,325 L95.56,325 L95.56,294.328 L95.416,294.328 L83.824,317.944 L77.776,317.944 L66.256,294.328 L66.112,294.328 L66.112,325 L56.68,325 L56.68,274.6 Z M132.388201,274.6 L141.316201,274.6 L159.748201,325 L149.812201,325 L145.708201,313.84 L127.996201,313.84 L123.892201,325 L113.956201,325 L132.388201,274.6 Z M143.548201,305.776 L136.852201,286.624 L136.708201,286.624 L130.228201,305.776 L143.548201,305.776 Z M169.072402,274.6 L178.864402,274.6 L178.864402,325 L169.072402,325 L169.072402,274.6 Z M192.508603,274.6 L202.300603,274.6 L202.300603,316.72 L227.500603,316.72 L227.500603,325 L192.508603,325 L192.508603,274.6 Z M236.824804,274.6 L268.432804,274.6 L275.632804,281.8 L275.632804,295.912 L272.752804,298.864 L277.864804,304.048 L277.864804,317.224 L270.088804,325 L236.824804,325 L236.824804,274.6 Z M263.392804,295.696 L265.984804,293.104 L265.984804,285.328 L263.464804,282.808 L246.400804,282.808 L246.400804,295.696 L263.392804,295.696 Z M265.120804,316.792 L268.216804,313.696 L268.216804,306.64 L265.120804,303.544 L246.400804,303.544 L246.400804,316.792 L265.120804,316.792 Z M288.269005,316.72 L288.269005,282.88 L296.549005,274.6 L322.469005,274.6 L330.749005,282.88 L330.749005,316.72 L322.469005,325 L296.549005,325 L288.269005,316.72 Z M317.285005,316.648 L320.957005,312.976 L320.957005,286.624 L317.285005,282.952 L301.733005,282.952 L298.061005,286.624 L298.061005,312.976 L301.733005,316.648 L317.285005,316.648 Z M354.401206,299.008 L337.553206,274.6 L348.569206,274.6 L359.945206,291.16 L371.321206,274.6 L382.337206,274.6 L365.489206,299.296 L383.057206,325 L372.041206,325 L359.945206,307.216 L347.849206,325 L336.833206,325 L354.401206,299.008 Z M392.021407,274.6 L428.453407,274.6 L428.453407,282.88 L401.813407,282.88 L401.813407,295.624 L426.365407,295.624 L426.365407,303.76 L401.813407,303.76 L401.813407,316.72 L428.453407,316.72 L428.453407,325 L392.021407,325 L392.021407,274.6 Z M438.497608,317.224 L438.497608,310.024 L448.145608,310.024 L448.145608,314.272 L450.521608,316.648 L465.425608,316.648 L467.873608,314.2 L467.873608,305.848 L465.497608,303.472 L446.417608,303.472 L438.641608,295.696 L438.641608,282.376 L446.417608,274.6 L469.169608,274.6 L476.945608,282.376 L476.945608,289.648 L467.297608,289.648 L467.297608,285.328 L464.921608,282.952 L450.665608,282.952 L448.289608,285.328 L448.289608,292.744 L450.665608,295.12 L469.745608,295.12 L477.521608,302.896 L477.521608,317.08 L469.601608,325 L446.273608,325 L438.497608,317.224 Z" id="Combined-Shape" fill="#E9CA5D" fill-rule="nonzero"></path>
    </g>
</svg>